# xmcd CD database file
#
# Track frame offsets:
#	183
#	20683
#	33590
#	47338
#	60040
#	72943
#	82933
#	95500
#	107365
#	116593
#	130065
#	144183
#	156023
#	170848
#	178708
#
# Disc length: 2571 seconds
#
# Revision: 0
# Processed by: cddbd v1.4PL0 Copyright (c) Steve Scherf et al.
# Submitted via: CDex 1.50beta9
#
DISCID=b70a090f
DTITLE=Lowell Fulson - Chicago Blues Vol.3 cd1
DYEAR=1900
DGENRE=Blues
TTITLE0=I Want To Know You 
TTITLE1=Lonely Hours 
TTITLE2=Lovin' You 
TTITLE3=Its' A Long Time 
TTITLE4=Rollin' Blues 
TTITLE5=Love'in Things 
TTITLE6=Swingin' Party 
TTITLE7=Took A Long Time 
TTITLE8=Love Grow Cold 
TTITLE9=Hung Down Head 
TTITLE10=Someday Baby 
TTITLE11=That's All Right 
TTITLE12=I Want To Make Love To You 
TTITLE13=Rock This Morning 
TTITLE14=Reconsider Baby 
EXTD=
EXTT0=
EXTT1=
EXTT2=
EXTT3=
EXTT4=
EXTT5=
EXTT6=
EXTT7=
EXTT8=
EXTT9=
EXTT10=
EXTT11=
EXTT12=
EXTT13=
EXTT14=
PLAYORDER=
